<?xml version="1.0" encoding="UTF-8"?>
<!-- (c) ammap.com | SVG map of Yemen - High -->
<svg version="1.1" xmlns="http://www.w3.org/2000/svg" xmlns:amcharts="http://amcharts.com/ammap">
 <defs>
  <style type="text/css">.land
			{
				fill: #CCCCCC;
				fill-opacity: 1;
				stroke:white;
				stroke-opacity: 1;
				stroke-width:0.5;
			}</style>
  <!-- All areas are listed in the line below. You can use this list in your script. -->
  <!--{id:"YE-AB"},{id:"YE-AD"},{id:"YE-AM"},{id:"YE-BA"},{id:"YE-DA"},{id:"YE-DH"},{id:"YE-HD"},{id:"YE-HJ"},{id:"YE-HU"},{id:"YE-IB"},{id:"YE-JA"},{id:"YE-LA"},{id:"YE-MA"},{id:"YE-MR"},{id:"YE-MW"},{id:"YE-RA"},{id:"YE-SA"},{id:"YE-SD"},{id:"YE-SH"},{id:"YE-SN"},{id:"YE-TA"}-->
 </defs>
 <path id="YE-AB" class="land" d="m76.822 135.65-0.50672-0.73958-0.40467-0.95872 0.11612-0.9005 0.86916-0.50675 0.80934-1.0717 0.98528-2.4824 0.34837-1.6914 0.81286-0.22598 0.58061-0.33897 0.23224-0.90393-0.46449-0.56154-0.75304-0.73273-0.92898-0.45197 0.58061-1.1847 0.75304-0.50675 0.58061-0.79094 0.28855-0.84572-0.40467-0.39376h-0.64043l-0.86916 0.28077-0.46097-0.67795 0.40467-0.39376 0.69673-0.17119 0.80934 0.0582-0.0563-0.84573-0.40819-0.33897 0.11612-0.79094 0.46449-0.33555 1.0451 0.16778 0.63691-0.22599-0.11612-0.56495-0.46449-0.33555-0.17242-0.67795 0.23225-0.45197 1.5061 0.0582 1.0416-0.1712 0.58061 0.50675 0.63691-0.39376h1.3935l0.28855 0.56496 0.63691 0.73273 2.0304-0.0548 0.80934-0.39718 0.92898-1.1847 2.2591-1.0717 1.3935-0.90051h0.46097l0.17594-0.90393-0.0598-0.9005 0.64043-0.113 0.40466-0.28418 0.28855-1.8592 0.17594-0.73616 0.34837-0.50675 0.4856-0.25337 0.86916-0.45197 0.81286-0.33554 0.69321-0.56497 1.3336-0.11299 1.1612 0.56496 0.5208 0.84573 0.75303 0.9005 0.17242 0.73273-0.46097 0.84572-0.23224 0.67795-0.58062 0.56496-0.0563 0.61974 1.39-0.16777 1.1577-0.2842 0.86916-0.0548 0.52431 0.28077 1.0416-0.56496 1.2773-0.78751 0.28855-1.0717 0.51024-0.39376 1.5659 0.10957 1.5061-0.28077 1.1014 0.28077 1.2175 0.73615h1.9706l0.34835 0.73273 0.34485-0.22598 0.40819-0.79093 0.28854-0.61974 0.86916-0.113 0.64043 0.33898v2.2564l0.98528 0.50675 0.80934 0.61973 0.17595 4.4272 0.23223 1.9756 0.34485 0.67794-0.34485 1.1847 0.0387 1.195-0.49967 0.0582-1.0768 0.26023-0.84101 0.32185-0.69322 0.0616-2.1184 0.47252-0.9501 0.3013-0.36948 0.18148-1.4357 0.95529-1.8192 0.67794-1.1507 0.51018-0.90788-0.23625-0.86564-0.0445-1.9811 0.4417-0.77414 0.0548-0.84101 0.17463-0.23576-0.0788-0.0563-0.0959-0.23576-0.0479h-0.65099l-0.38356 0.0959-0.2428-0.0479-0.20761 0.0308-0.0598-0.0856-0.17243 7e-3 -0.48561-0.14038-0.42225-0.0274-0.0669 0.0479-0.51023-0.20201-0.53486-0.0343-0.64043 0.0616-0.28504 0.10615-0.60876 0.0205-0.43634 0.11985-0.61579-0.0377-0.2428 0.0788-0.41523 7e-3 -0.0422 0.0479-0.15131-0.0411-0.15835 0.0719-1.4603-0.13354-0.43281 0.0685-0.65803 0.20544-0.65802 0.0171-0.66155 0.22256-0.98528-0.024-0.55949 0.19859-0.7636 0.11642-0.85156 0.29104-0.53487 0.0548-0.13371 0.10957-0.51024 0.1438-0.76007 0.0171-0.35892 0.10956-0.57357 0.3561-1.9283 1.7531-1.0275 1.2224-0.81638 1.2737-0.15835-0.0103 0.01056 0.16092-0.05982 0.10957-0.5595 0.53072-0.39763 0.47935-0.58413 0.46909-0.61932 0.19516-1.2175 0.16435-1.0275 0.20887-0.79878 0.2431-1.0838 0.46567-0.55246 0.30815-0.58413 0.52387z" title="Abyān"/>
 <path id="YE-AD" class="land" d="m76.579 136.04-0.66154 1.2634-0.34133 0.94845-0.13372 0.83887 0.10908 0.21229 0.14075-0.0582-0.1302 0.22256 0.03519 0.0616 0.17242 0.0377-0.02111 0.13353-0.08445-0.10272-0.17242-0.024-0.10205 0.11984 0.0563 0.0924-0.09853 0.10273-0.20058 0.0137-0.16539-0.065-0.10205 0.0377-0.2604-0.11299-0.19354-0.17119-0.17242 0.0788 0.05982-0.0925-0.02815-0.15408-0.39059-0.0788 0.08445-0.26023 0.74248-0.20543 0.20761 0.11641 0.17594-0.16092 0.02463-0.11642-0.11612-0.39376-0.20058-0.0171 7e-3 -0.0479 0.14076-0.0342-0.19354-0.15751 0.22521-0.0548 0.10205 0.0719 7e-3 -0.0788-0.63691-0.27048-0.1689 0.16435 0.03167 0.57865-0.23576-0.38006v0.15065l-0.48208-0.089-0.35892 0.0171-0.73544 0.39376-0.23576 0.39718-0.10205 0.47593-0.23576-0.089-0.08445-0.13696 0.0176-0.16436 0.09853-0.024 7e-3 -0.10957-0.49264-0.089-0.18298 0.0788-0.19354 0.35609-0.01407 0.16778 0.59117-0.0616 0.22521 0.17462 0.95713 0.0651-0.21817 0.21228 0.10557 0.22941-0.21817 0.0651-0.13372-0.0616-0.03167-0.1438-0.21113 0.0719-0.08445 0.15066 0.03519 0.0959 0.09149 0.0377-0.04223 0.10956-0.06686-0.089-0.13372-0.0342-0.20057 0.11985-0.48208 0.0479-0.13372 0.11641-0.06686-0.0308-0.04926-0.16777-0.11612-0.0616-0.15835 0.0206-0.09501-0.0959 0.0176-0.17805 0.10908-0.0479v-0.12669l-0.21113-0.24995-0.23224-0.10272-0.35892-0.0548-0.45041 0.0479-0.56654 0.26364-0.46449 0.44854-0.12668-0.19174 0.23224-0.13353-0.05982-0.24653-0.1302-0.18147-0.54542-0.45882-0.45041-0.23968-0.40115-0.11299-0.68618-0.11983-0.65803-0.0137-0.30262 0.0411-0.79174 0.28419-0.68266 0.44512-0.68266 0.64713-0.70729 0.856-0.66155 0.92789-0.09853-0.0137 0.04223-0.10272-0.12316-0.12668-0.34837 0.0171 0.23576-1.0786 0.63691-0.95871 0.69673-0.90393 2.0304-0.90393 4.2895-0.11299 1.8544-0.16777 1.1577-0.50676 0.69673-0.45196 1.9143-0.28077 1.7876-0.0924z" title="'Adan"/>
 <path id="YE-AM" class="land" d="m45.268 78.733v-0.45195l0.58061-0.22599-0.17242-0.45197-0.46449-0.16777-0.11612-0.67795 0.23224-0.73273 0.80934-0.11299 0.34837 0.39376 0.52431-0.10957v-1.2429l0.52079-0.22597-0.05982-0.61975h-0.80934l-0.05982-1.5784 0.52431 0.0548-0.17594-0.73273-0.34837-0.33897 0.05982-0.44855-0.17594-0.39718 0.17594-0.78751-0.34837-0.79094-0.63691-0.45197-0.69673 0.33898-0.46449 0.79094-0.57709 0.22598-0.23224-0.62316 0.34485-0.50676 0.52431-0.16777 0.28855-0.56495-0.63691-0.84573-0.28855-0.56495-0.46449-0.61975 0.11612-1.8626-0.63691-0.56154-0.58061-0.45196 0.11612-1.0169v-0.84572l-0.40819-1.1847 0.40819-0.56153 0.34837-0.45197-0.08445-4.2115 0.44338-0.21571 0.80934-0.2842 1.8544-0.16777 0.69673-0.33897 0.40467-0.39376 0.92898-0.22598 0.63691 0.11298 0.75304 0.45197 1.2175 0.113 0.98528 0.11298 0.98528 0.22256 1.6539-0.0685-7e-3 0.0137 1.2175 0.22598 0.58061 0.28077 0.63691-0.33897 0.52079 0.39718 0.40467 1.0135 1.4498 1.2977 0.11612 1.5237-0.40467 0.33897-0.05982 2.705h0.9888l-0.23224 1.8044-0.46449 0.67795 0.23224 1.1847 0.57709 0.61974 0.81286 0.22598v1.1847l0.0563 0.0479-0.58765 0.54441-1.2773 0.0548-0.69673 0.67794h-1.3301l-0.11612 1.1299-0.40819 1.3525 0.34837 0.28076 0.46449 0.51018-0.23224 0.8149-0.63691 0.84914-1.0451 0.84573 0.05982 1.2395 0.52079 0.22599-0.23224 0.56495-0.86916 0.22599-0.34837 0.73272-0.98528 0.67453-1.1014 0.22598-0.0563-1.1265-0.92898 0.50675 0.11612 0.50675-0.34837 0.39718 0.17594 0.44854-1.4744-0.64713-0.63691-0.1712-0.28855-0.44854-0.46449 0.0548-0.17242 0.79094-0.64043 0.0548-0.52079 0.28419-0.52079-0.45196h-0.69678z" title="'Amrān"/>
 <path id="YE-BA" class="land" d="m82.948 115.11-0.05982-2.8762-0.40467-0.56153-0.69673-0.0582-0.69673 0.67795-0.63691 0.50675-0.52079 0.79094-0.81286 0.0548-0.17242-0.39376-0.92898-0.0548-0.0563-1.2429-0.46449-0.50675-0.40467-0.56496-1.1612-0.0548-0.11612-1.2429-1.2738-1.3525-0.0563-0.50676-0.75656-0.11298-1.3301 0.11298h-1.1014l-0.98528 0.73274-1.1014-0.84572-0.52431 0.67452-0.17242 0.51017h-1.0451l-1.3899-0.39718-0.11612-1.2977 0.46449-0.0548 0.0563-0.79094-0.40467-0.22256-0.46449-0.11298v-0.67796l0.52431-0.50674h1.3301l0.46449-2.2564 0.40467-0.28418h0.58061l-0.0563-0.95872-0.52431-0.56153-0.1126-2.0886 0.63691-0.95871 1.0416-0.79094 1.1014-0.44854 0.75304-0.90393 0.89731-0.30816 7e-3 0.0274 1.0451-0.45197h0.98528l0.46449-0.28076h0.46097l0.29207 2.479 0.34837 2.3146 0.52079 1.5237 0.86916 0.61974 1.1014 0.33897 0.17242-0.73615 0.69673-0.56154 0.69673 0.0548 0.57709 0.50674 0.52431 0.0582 0.17242-0.50674-0.86916-0.62317 0.34837-0.44854 1.0416 0.67453 0.69673-0.0548 0.23224-0.84572 0.40467-0.61974 0.63691 0.33555-0.11612 0.67794h1.2773l0.23224-0.9005 0.57709-1.2977-0.05279-0.79094 2.977 0.0856 0.17242 2.7049 2.3787 0.17121 1.2738 2.3694 0.46449 1.6332v1.8079l1.3337-0.0582 0.69321-0.28076h0.58061l0.58061 0.73273 1.5061 1.3525-0.4856 0.25338-0.34837 0.50674-0.17594 0.73617-0.28855 1.8592-0.40466 0.28419-0.64043 0.11299 0.0598 0.90051-0.17594 0.90393h-0.46092l-1.3935 0.9005-2.2591 1.0717-0.92898 1.1847-0.80934 0.39718-2.0304 0.0548-0.63691-0.73273-0.28855-0.56496h-1.3935l-0.63691 0.39376-0.58061-0.50675-1.0416 0.1712z" title="Al Bayḑā'"/>
 <path id="YE-DA" class="land" d="m78.018 113.14-0.69322 1.8558-0.75304 0.84572-1.1612 0.95871-1.2175 0.73274-0.86916 0.78752-0.92546 0.17119-0.64043 0.56496-0.63691-0.33897h-0.98528l0.69673 2.0304 0.28855 1.1265h-1.1014l-0.23224-0.39375h-0.57709l-0.23224 0.39375-0.58061 0.33898-0.92898 0.11298-0.69322 0.22599-0.63691-0.45197-0.75655 0.56496-0.46097-0.45196-0.75655-0.22599-0.34485-0.61974-0.40819-0.50674-1.2175-0.1712-0.46097 0.28418-0.81286-0.17119-0.11612-0.84573 0.63691-0.22598 0.05982-0.56153-0.17594-0.84914-0.57709-0.84573 0.11612-0.73273 0.75304-0.56154 0.40467-0.67794 0.81286-0.90394-0.23224-0.84571 0.57709-0.45197 0.92898-0.33555h1.2738l0.52431-0.51018-0.81286-0.22598-0.40467-0.56153 0.40467-0.62316 0.63691-0.22256 0.05982-1.0169 0.52079-0.0548 0.58061 0.16777 0.63691-0.45196-0.02815-0.67453h1.0134l0.17242-0.51017 0.52431-0.67452 1.1014 0.84572 0.98528-0.73273h1.1014l1.3301-0.11299 0.75656 0.11299 0.0563 0.50675 1.2738 1.3525 0.11612 1.2429 1.1612 0.0548 0.40467 0.56497 0.46449 0.50674z" title="Aḑ Ḑāli'"/>
 <path id="ad_dali" d="m69.412 117.12a1.3246 1.1141 0 0 1-1.8715 0.0549 1.3246 1.1141 0 0 1-0.06663-1.574 1.3246 1.1141 0 0 1 1.8714-0.0571 1.3246 1.1141 0 0 1 0.06926 1.5739l-0.97097-0.75781z" fill="#f00" fill-rule="evenodd">
  <title>Ad Dali</title>
 </path>
 <path id="YE-DH" class="land" d="m47.27 110.5-0.47153 0.40745-0.63691 0.39719h-0.92546l-1.3336-1.3559-1.1612-0.0548-0.75304-0.45197-0.17242-0.84573 0.63691-0.33897 0.23224-0.61974-0.40819-0.39376-0.75304-1.3559-0.52079-0.78752v-0.62316l0.63691-0.10957h0.81286l0.0563 0.44854h0.52431l0.28855-0.56153 0.63691-0.45197 0.52079-0.22597 0.40819-0.50676 0.17242-0.62316 1.3336-0.16778 0.23224 0.45197 1.1577-0.0582 0.69673-0.50674 1.0416-0.50676 1.1014-1.1299 0.52431-0.44854 0.11612-0.56496-0.75304-0.90392 0.17242-1.0717-0.75304-0.67453-1.3336-0.95871-1.1612-1.0717-0.12316-0.7567 0.12316 0.0205v-0.50674h1.682l0.05982 0.45196h0.63691l0.86916-0.73273 0.17242-0.61974 0.69673-0.11299 0.52079-0.45197 0.34837-0.50674h0.58061l0.0563-0.56496 0.52431-0.45196 2.5477 0.11298 1.6257 1.2977 2.4315 0.16777 0.29207-0.39376-0.34837-0.22598v-0.56496h0.69673l0.57709 0.56496 0.64043 0.51017 1.0416-0.33897 0.92898-0.11299 0.34485-0.45197 0.58061-0.33897 0.75304-0.113 0.69673-0.33897 1.3899-0.11299 0.52431 0.22598-0.05982 3.1603 1.0451 0.113 0.46097 0.33554 0.34837 0.39719 0.29207 0.45196 0.22872 0.78752 0.64043 0.34239-0.25688 0.30816-1.1014 0.44854-1.0416 0.79094-0.63691 0.95871 0.1126 2.0886 0.52431 0.56153 0.0563 0.95871h-0.58061l-0.40467 0.28419-0.46449 2.2564h-1.3301l-0.52431 0.50675v0.67795l0.46449 0.11299-1.1366 0.8149-0.58061-0.78751-1.39-0.0582-0.28855-0.28077-0.29206-0.67795h-0.98528l-0.57709-0.33897-0.58061-0.22598h-0.69673l-0.69322-0.22256-0.46449-0.67794-0.46449-0.33898-0.34837-0.39375-0.63691-0.17121-0.40467 1.5819-1.1014 0.0548-0.17594 0.45197h-0.80934v-2.3146h-0.52431l-0.63691 0.73616-0.23224 0.56153-0.69322 0.73273-0.58061 0.11299-0.46449 0.56496-0.52079-0.0548-0.23224 0.44855 0.40467 0.17119 0.11612 0.56496 0.29206 0.56153-0.81286 0.90394-1.2175 0.79093-0.52079 0.10957 0.0563-0.9005h-0.80934v0.9005l-0.40819 1.4107-0.40467 0.39718z" title="Dhamār"/>
 <path id="dhamar" d="m61.767 98.668a1.3246 1.1141 0 0 1-1.8715 0.05493 1.3246 1.1141 0 0 1-0.06663-1.574 1.3246 1.1141 0 0 1 1.8714-0.05714 1.3246 1.1141 0 0 1 0.06926 1.5739l-0.97097-0.75781z" fill="#f00" fill-rule="evenodd">
  <title>Dhamar</title>
 </path>
 <path id="YE-HD" class="land" d="m250.64 152.3 0.3167 0.0377 0.0669 0.0719 0.43282 0.0274 0.0563 0.14038 0.1302 0.0479 0.12668 0.14723-0.0351 0.53414-0.61932 0.18147-0.0669-0.12669-0.63339-0.18147-0.30966-0.31843-0.34837-0.15066h-0.23577l-0.16538-0.10271 0.0668-0.10272 0.5982-0.0719 7e-3 -0.10957zm-20.863-1.3867 0.0422 0.0651 0.24983 0.0548 0.30614-0.12668 0.14428 0.11641 0.0387-0.0719 0.13724 7e-3 0.0422 0.0582 0.0985-0.0308 0.16539 0.13353 0.20761-0.024 0.4469 0.43484 0.12316-0.0479 0.58413 0.33213 0.16187-0.0788 0.84804 0.10272 0.19354-0.0651 0.26743 0.0719 0.20761-0.11642 0.10909 0.13355 0.25687 0.0411 0.0668-0.0685 0.30263 0.22941 0.16538 0.0411 0.40115-0.13353 0.27448 0.0856 0.53134 0.0479 0.34133-0.20886 0.0915 0.024-0.35893 0.27049-0.13371 7e-3 -0.10909 0.12669-0.0106 0.22256 0.0598 0.0856 0.22521 0.0651-0.0247 0.13353-0.13371 0.0308-0.27448-0.11299-0.63691 0.19859-0.64395-0.024-0.1302 0.0924-0.65098-0.20886-0.0739 0.0411-0.55246-0.0479-0.23225-0.50675-0.0845-0.0377-0.49264 0.0616-0.37299-0.10958-0.11613 0.0479-0.17595-0.11299-0.19001 0.089-0.21817-0.0788-0.11613-0.23968-0.36947-0.1575-0.27447 0.0719-0.0492-0.0548-0.37651 0.0411 0.0492-0.0651-0.20761-0.15065-0.5771-0.24653-0.0528-0.10272 0.15132-0.0788-0.0247-0.0856-0.12668 0.0548 0.0352-0.14381zm31.955-10.193 0.73545 0.27049 0.64043 0.0788 0.76008-0.0582 0.10204-0.0616 0.12668 0.0308 1.0838 0.83888 1.316 0.89708 0.82342 0.37321 0.84452 0.18147 0.25687-0.0856 0.28503-0.26023 0.41875-0.67453 0.21817-0.10956 0.47504-0.0959 0.38356 0.18148 0.36596 0.089 0.10909-0.0548 0.14778 0.0856 0.20058-0.11641 0.11612 0.0171 0.12316-0.15065 0.61228 0.024 1.5764-0.61974 0.16539-0.24652 0.0563-0.26022 0.12317-0.0308 0.56653 0.11984 0.19002 0.10614 0.36244 0.3561 0.47153 0.25336h0.19353l0.34133-0.10956 0.16891-0.13695 7e-3 0.20543 0.22521 0.12669 0.0845 0.1438 0.21465 0.15066-0.17594 0.16778 0.43282-0.16778 0.32373 0.14039h0.28503l0.0598 0.20886 0.26039 0.089 0.25688 0.22256 0.12316 0.0377 0.11612-0.0719 0.25688 0.1986 0.15131-0.0411 0.18298 0.0959 0.36596 0.0137 0.12667 0.0616 0.10909-0.0616 0.12668 0.0205 0.69322 0.41431 0.2991 0.11983 0.34133 0.0137 0.39411 0.34924 0.75655 0.39718 0.40819 0.0137 0.42931-0.27734 0.17946 0.10272 0.29206-0.0616-0.0141 0.20544 0.0669 0.0959-0.19002-0.024-0.46801 0.19859-0.86212 0.1575-0.30966 0.13011-0.25688 0.47251 0.11612 0.17462v0.12669l-0.2428-7e-3 -0.18297 0.14381-0.19355 0.0342-0.0985 0.0719-0.0176 0.14381-0.14076-0.0103-0.34132 0.14382-0.49264 0.0479-0.61932 0.2294h-0.30263l-0.0247 0.0616-0.64395-0.0171-0.49967 0.0787-0.7073 0.29105-0.17594 0.18147-0.21113 0.53071-0.60173 0.11984-0.27447 0.29104-0.88322 0.54783-0.28151 0.0308-0.72489-0.12668-1.1753 0.0822-0.38356 0.10272-0.11612 0.27734-0.20761 0.14038-0.80934-0.16778-0.95361 0.0479-1.953 0.46908-1.1436 0.13697-1.2668 0.10271-1.119-0.0616-0.56653-0.11299-1.7313-0.60947h-0.34132l-0.0668-0.089-0.19002 0.0377-0.0774-0.2705 0.0422-0.0616-0.23224-0.13354-0.29206-0.51701-0.54895-0.45882-0.41522-0.2294-0.10205-0.30131-0.24984-0.2705-0.19353-0.0411-0.88675-0.43485-2.3119-1.4175-0.0247-0.13695 0.2991-0.16435 0.24281 0.10956 0.20058 7e-3 0.94305-0.22256 0.26743-0.21571 0.10205-0.23625 0.0351-0.84915 0.0809-0.22941-0.0317-0.19859-0.0774-0.0171 0.0317-0.23625-0.0915-0.28762 0.43986-0.23625 0.37651-0.11985 0.19354-0.024 0.1478 0.0616 0.40115-0.0719 0.34836-0.43484 0.0352-0.17463 0.49265 0.0206 0.2252-0.21571zm-116.43-120-7.9069 9.2584-5.3874 6.5809-1.4885 4.1259-1.3759 3.2357-1.6046 1.0032-1.3759 1.0032-1.4885 0.67109-1.4885 1.0032-4.469-0.22256 0.0106 13.504-14.814 16.254 13.196-1.3182 7.7943-0.22256 8.023-1.0032 5.0425 0.33556-2.8644 4.3484-2.9805 2.7871-0.57357 4.0163-0.91491 1.4484 1.1472 0.44511 1.3759 1.0032-0.11613 1.3388-0.68618 1.0032-1.1472 0.55811-1.9494 1.1162-1.1472 0.89366 0.57358 0.89366 1.031 0.6711 1.7207 2.229-0.11612 1.6743h0.91843l4.1276 2.1194 2.1782 0.33554 0.68617 1.3388 1.3759 0.89366 1.8333 1.4484 0.11613 0.89365 0.68969 1.0032 3.0931 1.1162h2.1782l0.91842-0.22256 0.91843-0.55811v1.0032l0.91842 0.33555 1.031 1.1162 0.91842 1.3388 0.0528 0.15408 1.6539 0.0788 0.26744-0.0308 0.0352-0.18832 0.0563 0.17462 0.2604-0.0787 0.73192-0.63002 0.60876-0.84229 0.43986-0.30816 0.373-0.0651 0.42579-0.55811 0.0985 0.0377 0.2428-0.21229 0.59821-0.81491 0.11612-0.0308 0.0739-0.30473-0.0528-0.30473 0.10908-0.21229 0.74249-0.34582 0.15131 0.0856 0.0598-0.11642 0.15835-0.0308 0.12669-0.16435 0.21816-0.59577 0.15835-0.0479 0.15835-0.18147 0.70026-0.0479 0.28502-0.24996 0.0563-0.0959-0.0351-0.38691-0.25687-0.13353-7e-3 -0.19859 0.12668-0.17463 0.0739-0.39375 0.32726-0.68138 0.14779-0.0616 0.0422-0.29789 0.99231-1.2943 0.94306-0.77724 0.19354-0.0788 0.29206 0.0137 0.20058 0.0411 0.0422 0.10957 0.14076-0.0856 0.14075 0.0856-7e-3 0.11642h0.0845l0.0668 0.11641 0.29206 0.11642 0.0317-0.11642-0.0985-0.1712 0.0316-0.21913 0.19353-0.34582 0.92546-0.47937 0.94306-0.60262 2.1008-1.082 1.3196-0.42115 0.53487-0.28419 0.54894-0.20544 0.30262-0.0959 0.14779 0.0719v-0.12669l1.5518-0.85599 1.2844-0.48621 1.1683-0.31158 1.6011-0.27392 1.6926-0.57181 0.21818 7e-3 0.41873-0.11641 1.8333-0.80463 0.60173 0.0924 0.65802-0.14038 0.38356 0.024 0.35892 0.59235-0.0915 0.11642 0.86916-0.23626 1.0345-0.43142 0.35189 0.0788 0.2604-0.0479 0.22521 0.14723 0.60172-0.0479 0.16539-0.10272-0.0247-0.21228 0.16539-0.15751 1.4603-0.84571 1.0345-0.43827 0.29207-0.0651 0.2991 0.21228 0.0106-0.0959 0.20058-0.17805 0.0352-0.15065 0.66858-0.5718 0.82341-0.541 1.4427-0.77382 2.4456-0.60947 1.7031-0.24994 0.86915-0.21229 0.38356 0.0479 1.7665-0.43827-0.42226-0.83203-0.42931-0.4999-0.4293-1.171-0.60172-1.171-0.68618-0.83545-0.51727-1.0888-1.2879-0.0822-0.34485-0.50332-0.68617-0.33555-1.2034-0.33555-1.6328-0.83545-1.9776-0.5855-1.8052-0.16778-0.0845-0.75327 0.68969-0.16778-0.0845-1.7565-1.4603-0.50332-0.85859-0.16778-0.51728-0.66767 0.088-0.83545 0.77415-3.513 0.25688-2.1742 0.68969-1.0888 0.68618-0.5855 0.34485-1.0888-0.51728-0.83545-0.68617-0.75327-0.94657-0.66768 0.51727-1.9243 0.77415-1.421 0.51727-1.171-0.0845-1.5066 1.031-1.5066-0.77415-0.50332-0.0845-1.0032 0.60172-0.92105 0.77415-0.83545 1.2914-0.83545 1.8896-0.50332 1.7207-0.0822 1.2034-0.5855 0.94657-0.75327 0.68618-0.75328 0.0845-1.421 1.4603-1.171 1.7207-1.0888 1.8052-1.2532 1.4603-0.75327 1.4603-0.66768 1.031-0.0822 0.25687-1.0032 0.34485-0.5855 0.85861-1.0888 1.2034-0.92105 1.031-1.171 0.25687-1.0032 0.68619-1.0032 1.119-1.9243 1.4603-3.513 1.119-2.4242 0.51728-2.5098 0.68618-6.5227 0.4293-1.5887 0.77415-1.171 0.68617-1.421 1.2035-1.7565 0.77414-2.092 0.8586-1.5887 0.77415-1.2532 1.2034-1.5066 1.031-1.0888 0.68617-1.171 1.8896-2.092 0.75304-1.6812-26.163 5.0435-36.793 3.9033z" title="Ḩaḑramawt"/>
 <path id="al_mukalla" d="m171.16 98.817a1.3246 1.1141 0 0 1-1.8715 0.05493 1.3246 1.1141 0 0 1-0.0666-1.574 1.3246 1.1141 0 0 1 1.8714-0.05714 1.3246 1.1141 0 0 1 0.0693 1.5739l-0.97097-0.75781z" fill="#f00" fill-rule="evenodd">
  <title>Al Mukalla</title>
 </path>
 <path id="YE-HJ" class="land" d="m35.394 54.539 0.40819-0.0274 0.26391 0.27734 0.69322 0.0582 0.58061 0.39376 0.98528 0.11299 1.3899-0.56496 0.52431-0.16777 0.69322-0.113 0.86916 0.28077 0.92898 0.1712 0.10557 4.2012-0.34837 0.45196-0.40819 0.56154 0.40819 1.1847v0.84571l-0.11612 1.0169 0.58061 0.45197 0.63691 0.56153-0.11612 1.8626 0.46449 0.61974 0.28854 0.56496 0.63691 0.84572-0.28855 0.56495-0.52079 0.16778-0.34837 0.50675 0.23224 0.62316 0.57709-0.22598 0.46449-0.79094 0.69673-0.33897 0.63691 0.45196 0.34837 0.79094-0.17594 0.78751 0.17594 0.39718-0.05982 0.44855 0.34837 0.33897 0.17594 0.73274-0.52431-0.0548 0.05982 1.5784h0.80934l0.05982 0.61975-0.52079 0.22598v1.2429l-0.52431 0.10957-0.34485-0.39376-0.81286 0.11299-0.23224 0.73274 0.11612 0.67794 0.46449 0.16777 0.17242 0.45197-0.58061 0.22599v0.45196l-0.52079 0.16778-1.2738-0.16778-1.1014-0.28419-0.86916 0.11299-1.1612 0.0582-1.1014 0.39375-1.2175 0.0582-0.34837 0.28077-1.1331 0.11299-0.40818-0.16777v-1.9208l-0.46097-0.33555 0.0563-0.51018h0.46449l-0.11612-1.2977-0.34837-0.28077 0.0563-0.67794 0.75656-0.78752v-2.0304l-0.52431-0.33897-0.80934 0.0548-1.9143 0.62316-1.3336 0.67453-0.86916 0.0582-0.75304 0.22598-0.98528 0.0548-0.34837-0.28077-0.69322-0.1712-1.0451-0.78751-0.6334-0.024 0.04926-0.61289 0.0739-0.11985-0.02111-0.41772 0.14076-0.39034-0.01056-0.25679 0.09501-0.31844-0.09501-0.46565 0.2428-0.5273 0.02463-0.30473-0.08094-0.19174 0.0176-0.17805 0.10556-0.16435-0.04222-0.40403-0.21817-0.32871 0.08445-0.1438-0.23928-0.9005 0.0563-0.24311-0.09149-0.44854 0.14075-0.23283 0.0035-0.11641-0.02815-0.24311-0.20058-0.28418-0.24984-0.62317 0.08445-0.30131-0.03167-0.39376-0.15835-0.35609-0.08445-0.428 0.09149-0.45196-0.03167-0.17806-0.11964-0.19174-0.08445-0.37664-0.49264-0.33212-0.17594-0.45197 0.29207-0.33554 0.86916 0.0548 0.40467 0.28076 1.6996 0.0856 0.29558-0.23283 0.75656-0.024 0.07741-0.61289-0.36244-0.95529 0.02111-0.10614 0.5419-0.31843 0.28855-0.32186 0.23224-0.0993 0.4469-0.0137 0.89379-0.32186 0.67914-0.10614 0.2428-0.15065 0.54542-0.12327 0.09853-0.1575-0.1302-0.49647 0.36596-0.93133 0.0563-0.46565 0.23224-0.2979v-0.0924l-0.26743-0.33213-0.01056-0.13353 0.41874-0.10614 0.1126 0.13696 0.55598 0.28418 0.46801 0.113z" title="Ḩajjah"/>
 <path id="YE-HU" class="land" d="m25.914 117.46 0.08094 0.0514 0.06686 0.22256-0.04926 0.10272-0.16538 0.0959-0.04223 0.39376 0.08094 0.21914-0.18298-0.0411-0.09853 0.0925-7e-3 0.11983-0.19354 0.0479 0.02464 0.10957-0.07741 0.21229-0.36596 0.60605-0.10908 0.0548-0.28151-0.0651-0.19354 0.0616-0.0739 0.1575-0.12316 0.0171-0.07741 0.14038-0.09149 0.0137 0.01408 0.22941-0.04223-0.0856-0.0739-7e-3 -0.30262 0.15066-0.14427-0.12669-0.0563-0.32186 0.04926-0.0651 0.14075-0.024 0.02464-0.0856 0.15835 0.0548 0.03167-0.0719-0.05982-0.11641 0.0563-0.10957 0.39059-0.21229 0.0563-0.19859-0.03519-0.26707 0.08094-0.26022 0.20761-0.26023 0.32725-0.0856 0.11612-0.22256 0.21465-0.0548 0.20057-0.15065 0.28503-7e-3 0.08445-0.0719-0.01408-0.10956 0.15131-0.0548zm0.60172-2.0989 0.0739 0.024-7e-3 0.0548-0.34485 0.62316-0.40819 0.15751v-0.18148l-0.0739-0.0856 0.18298-0.29789 0.28151-0.26021zm-0.99584-4.2389 0.11612 0.26022 0.43282 0.36979 0.03167 0.29103 0.14779 0.0171-0.15131 0.19859 0.03519 0.68479-0.21817 0.33213-7e-3 0.40745 0.08094 0.11985 0.02464 0.24994-0.20057 0.20202 7e-3 0.0719 0.09149 0.0137 0.0739 0.18147 0.10908 0.0719-0.23576 0.18147-0.21113-0.0856 0.09853-0.32185-0.19002-0.0137-0.22521 0.14723 0.0739 0.15067-0.12316 0.0788-0.09149-0.0925 0.04926-0.46224 0.29206-0.30473-0.03167-0.0959-0.12668-0.0616-0.35189 0.0548-0.23224-0.0479-0.09149-0.23284-0.18298 0.0582-0.05279-0.0342 0.03167-0.24994-0.05982-0.10957-0.36948-0.19859-0.20761 0.0308 0.01056-0.33212-0.23225-0.0377 0.08445-0.13354 0.22521-0.1575 0.13372-0.25337 0.0739 0.0959 0.10908-0.0377 0.1689-0.32185h-0.09853l-0.12316 0.20543 0.08094-0.21913 0.58413-0.40061 0.15835 0.0171 0.20057-0.19516 0.18298 0.0137zm3.1459-12.244 0.0563 0.0308-0.06686 0.10272 0.0563 0.0959 0.24984-0.0479-0.03167 0.23626 0.11612 0.12668 0.46097-0.10956-0.03519 0.0856-0.25688 0.10273-0.05279 0.10271-0.15131-0.0651-0.30262-0.21229-0.17594-0.2431 0.03519-0.19517zm-16.366-8.7414 0.20761 0.14039-0.01759 0.23626-0.09853 0.0308 0.01759 0.0856-0.12668-0.0171-7e-3 -0.15065-0.09853 0.0377-0.0739-0.11641 0.04926-0.1712zm0.40819-1.0614 0.20057 0.0548 0.15835 0.20202-0.05982 0.11642 0.0563 0.0171-0.03519 0.13353 0.10205 0.19517-0.0563 0.14723-0.3167 0.28077-0.08445-7e-3 -0.01055-0.12326-0.13372-0.0959-0.06686-0.30473-0.12316-0.20201 0.04926-0.0685-0.04926-0.0616 0.06686 0.024 0.14779-0.0856 0.0176-0.14038zm9.9619-8.2997 0.17594 0.0377-0.04926 0.13354 0.24984 0.20201-7e-3 0.2431-0.2604-0.15065-0.0563 0.12327-0.16539 0.0856-0.17594-0.17805-0.10205-0.024-7e-3 0.10272-0.11612 0.0445-0.21113 0.27392 0.15131-0.0137 0.27447-0.15751 0.03167 0.16436-0.19354 0.0959 0.14779 0.20887-0.17594 0.0719-0.15131-0.0377-0.55246 0.0856 7e-3 0.0788 0.18298 0.0171 0.08094 0.14038h0.16539l0.70025-0.34925 0.2428-7e-3 -0.16539 0.53072-0.09853 0.0924-0.04926 0.22599-0.20058 0.32869 0.09149 0.24996-0.17594-7e-3 0.01759 0.10272 0.10908 7e-3 0.0739 0.23967-0.07741 0.43827-0.12316 0.23968-0.28503 0.25681-0.14427 0.36636-0.32374 0.0308-0.19354-0.0719-0.48208-0.40403-0.23576-0.34924-0.02464-0.28762 0.43282-7e-3 0.22521-0.55468-0.01407-0.26365-0.17594-0.36637 0.01759-0.32869-0.08445-0.14723 0.74248-0.85943 0.27447-0.0959-0.12316-0.20886 0.29207-0.0685 0.41522-0.29446zm-2.7975-1.0649 0.30614 0.13354 0.28503-0.0308 0.04223 0.0479-0.41874 0.4999-0.27447-0.0377-0.03519-0.0787 0.0563-0.16436 0.22521 0.0137 0.01408-0.18147-0.34133 7e-3 0.04926 0.0719-0.04223 0.0959-0.0739-0.0171-0.17594 0.10272-0.09149-0.15408 0.09149-0.1712zm-2.9699-0.62316 0.24984 0.0959-7e-3 0.0719-0.11612 0.0685 0.09149 0.52045 0.15131 0.16435 0.5595 0.37321 0.0176 0.10957-0.0563 0.0479-0.36596-0.19517-0.3167-0.31843-0.03519-0.2568-0.12316-0.13353-0.05279-0.28077-0.21817-0.19516zm-11.563-0.51702 0.11612 0.024 0.11964 0.13353-0.024632 0.38348-0.57709 0.22599-0.16539-0.13354-0.035189-0.2431 0.22521-0.29447zm15.736-0.4417 0.0176 0.13354-0.12316 0.19517-0.11612 0.0856-0.28503 0.0171v-0.17805l0.05982-0.0548 0.1689-0.0171zm0.90083-1.6195 0.14075 0.0856 0.09853 0.18832 0.62636 0.20886v0.0719l-0.0739 0.0548-0.43282-0.0788-0.18298 0.17805-0.20761-0.0137-0.08445-0.11642v-0.2431l-0.21817-0.15408-7e-3 -0.0685 0.04223-0.0719zm-0.86916-1.284 0.15835 0.024 0.03167 0.0856-0.09853 0.0719-0.5419-0.0411 0.0563-0.10956zm-5.8237-0.10271 0.09149 0.0445 0.01759 0.42799 0.17594 0.77039-0.27799-0.21228-0.09149-0.35952-0.1689-0.0377 0.08094-0.55126zm4.5077-0.43827 0.11612 0.0856-0.0176 0.17805-0.05982 0.0616-0.22521-0.024 0.02463-0.1575zm-2.421-0.29447 0.36596 0.30131 0.40819 0.1712 0.19002 0.0137 0.12316 0.12326 0.26743-0.0479 0.04223 0.0924 0.12316 0.0548 0.54894-0.0137-0.05279 0.1849 0.06686 0.0788-0.04926-0.0137-0.01759 0.10958-0.4856 0.0548-1.017-0.21228-0.47505 0.0787-0.14076 0.0856-0.15835-0.34925 0.14779-0.22598-0.10205-0.11641 0.03167-0.0685-0.07741-0.14038 0.06686-0.12326zm5.2009-0.49647 0.02463 0.11641-0.18298 0.45881-0.28503 0.23969-0.14427-0.0411 0.03519-0.24996 0.19002-0.36636zm4.0608-2.3488 0.63339 0.024 1.0451 0.79094 0.69673 0.16777 0.34837 0.28077 0.98528-0.0548 0.75304-0.22598 0.86916-0.0548 1.3336-0.67795 1.9143-0.61974 0.81286-0.0548 0.52079 0.33898v2.0304l-0.75304 0.79094-0.0563 0.67794 0.34837 0.28077 0.11612 1.2977h-0.47153l-0.0563 0.50676 0.46449 0.33897v1.9174l0.40467 0.16779-0.0563 0.79093 0.34837 0.33898 0.28855 0.50674-0.69673 0.45197 0.17242 2.0304 0.40467 0.33897 0.34837 0.61974 0.81286 0.73273 1.6222 1.0717 0.52079 0.67794 0.05982 0.79094 0.28855 0.39376 0.40467 0.33897 0.63691 0.33898 0.52079 0.28076 0.14075 0.0445-0.14075 0.32187 0.05982 0.56495 0.69673 0.28076 0.86916 0.16778h1.0451l0.58061 0.56496-0.52079 0.61973-0.06686 0.22941-0.04926-3e-3 -1.682-0.0548-0.28855 0.84572-0.58061 0.56496-0.81286 0.16777-0.58061 1.4655 0.40467 0.45197 0.17242 0.79094 0.28855 0.39375-0.63691 0.79094-0.11612 1.6914 0.75304 0.67795 0.23224 1.0169 0.34837 0.84572 0.23224 1.0169 0.28855 0.50675-0.0563 0.56496-0.40467 0.16777v0.50675h-0.75304l-0.63691 0.11299v0.61974l0.52079 0.79094 0.75304 1.3525 0.40467 0.39376-0.23224 0.61974-0.63691 0.33897 0.17594 0.84573 0.75304 0.45196 1.1577 0.0548 1.3336 1.3525h0.92898l0.63691-0.39376 0.47153-0.40745 0.10908 0.63344 0.46449 0.22598-0.58061 0.50674-0.58061 0.22599 0.11612 0.84572-0.40467 0.61975-1.0416-0.84573-0.34837 0.45197 0.11612 0.56495 0.40467 0.45197 0.34837 0.50675-0.91138 0.0411-0.01407-0.0411h-0.63691l-0.75304 0.45196-0.86916-0.16777-1.2738 0.28076-0.23224 1.0169-0.0563 0.61974 0.17242 0.50675-1.0416 0.113-0.34837 1.1847-0.46449 0.39376-0.63691 0.11299-0.69673 0.39375-0.63691 0.22599-0.43986 0.1438-0.0739-0.67451-1.1331-2.7084-0.06686-0.62316 0.14075-0.4417-0.02464-0.19517-0.27447-0.32185-0.47504-0.2294 0.01759-0.26708-0.23576-0.33212-0.66155-0.4417-0.04926-0.35609-0.2604-0.36294-7e-3 -0.48963-0.47505-0.51702-0.03519-0.21913-0.19354-0.2842-0.33429-0.19859 0.18298-0.21229 0.04926-0.29788-0.43986-0.80806 0.02464-0.36979-0.28503-0.86284-0.02464-0.50332-0.19002-0.73616-0.21817-0.27734-0.43282-0.98268-0.09149-0.77725-0.21817-0.58207-0.5595-0.86285-0.04223-0.46908-0.13372-0.51702-0.10908-0.15066-7e-3 -0.32869-0.2428-0.38349-0.19354-0.95872-0.45041-0.315-0.0563-0.40061 0.06686-0.18147 0.1689 0.10956-0.0563 0.34583 0.06686 0.19517 0.39059 0.10956-0.05982 0.0788 0.19002 0.85257 0.30966 0.0103-0.02463 0.22599 0.10908 0.16435 0.14075 0.0171 0.21817 0.7293 0.15835 7e-3 0.0176-0.55811-0.37652-0.28419-0.08445 0.0377-0.0563-0.065 0.12316-0.0548 0.20761 0.024 0.10908-0.17462-0.01407-0.0788-0.27447-0.17462 0.14075-0.1712-0.03519-0.32871 0.13372-0.18147 0.01759-0.25679-0.06686-0.11642-0.12316-0.024-0.05982-0.17462-0.27447-0.0548-0.04926-0.0719 0.01055-0.0651 0.20058 0.0377 0.10205-0.15065-0.42578-1.26 0.03166-0.76013-0.40115-0.32185 0.03519-0.28076-0.39411-0.60262-0.0563-0.59577 0.12316-0.34583-0.06686-0.38349-0.18298-0.40745-0.43282-0.3287-0.05279-0.27392-0.09149-0.10956-0.70729-0.56496-0.09149-0.45197-0.20057-0.52386 0.03167-0.35267 0.11612-0.18832 0.16539 0.0924-0.0739 0.17805 0.19002 0.20544 0.15835-0.0171 0.09853 0.0924-0.29206 0.0685-0.03167 0.13354-0.01407 0.35951 0.12316 0.14039 0.0739 0.38349 0.06686 0.0377 0.10205 0.0171 0.12668-0.315-0.15131-0.2431 0.28151 0.0171 0.23224-0.12326 0.03167 0.10271-0.20057 0.0856-0.06686 0.22598 0.23576 0.45197 0.14779 0.11641-0.09853 0.39033 0.16539 0.0445 0.05982-0.0479 0.03167-0.47594-0.04926-0.0685 0.14779-0.15066 7e-3 -0.26022-0.12316-0.24311-0.18298-0.14722 0.12316-0.0959 0.18298 0.12327-0.03519 0.14038 0.09149 0.10271 0.13372-0.18147-0.15835-0.39033-0.0176-0.61631-0.36596-1.0786-0.23576-0.35267-0.45041-0.36979-0.21113-0.0411-0.11612-0.10957-0.07741-0.20201-0.14779-0.11642 0.04926-0.32185-0.13372-0.13354-7e-3 -0.72588-0.09149-0.14723 0.12668-0.1712 0.09853-0.49305-0.39059-0.71219-0.25688-0.23625-1.3512-0.72588-1.2949-0.42116-0.96769-0.18831-0.22521 0.17119-0.02464 0.16435 0.06686 0.17805-0.15131 0.2568-0.2604 0.0479-0.2604-0.0479-0.16539-0.0377-0.16891-0.12668-0.08445-0.3287-0.47505-0.52387 0.06686-0.40061 0.15835-0.1712 0.40819 0.21229 0.08445 0.17805 0.19002 0.0377h0.64395l0.24984-0.23625-0.01407-0.26365 0.11612-0.0788 0.09853-0.29103-0.40819-0.56839-0.02463-0.31843 0.30966-0.16435 0.15835-0.2431v-0.51702l0.05982-0.12327 0.12316-0.0719 0.13372 0.0479 0.02463 0.26365-0.23576 0.42114-0.12316 0.49991 0.06686 0.10271 0.30966-0.14038 0.28151-7e-3 7e-3 0.21913 0.21817 0.1849-0.0739 0.28077 0.14779 0.1575 0.20057-0.0925 0.11612 0.024 0.02464 0.12326 0.14076-0.12668 0.12316-7e-3 0.04223 0.12326 0.13372 0.10272-0.09149 0.3287 0.05982 0.31843 0.09853 0.0616 0.2604-0.0924-0.02464-0.13353 0.57357-0.68822-7e-3 -0.23626-0.36596-0.37664-0.19002-0.0651-0.19002 0.0171 0.22872-0.26364 0.0739-0.14724 0.10908-0.6574-0.01408-0.19517-0.27447-7e-3 -0.09149-0.1267v-0.12668l0.10205-0.0548-0.01759-0.3287-0.23224-0.35951-0.03167-0.21229-0.20761-0.10272 0.23576-0.3287 0.0563-0.2568-0.04926-0.15751 0.08445-0.17804-0.29206-0.3287 0.03167-0.24995-0.15131-0.17805-0.07741-0.36636-0.19354-0.41431-0.40819-0.22598-0.28151 0.024-0.09853-0.0479-0.23224-0.28761-0.04222-0.18147 0.26743-0.024 0.17242-0.47592 0.17594-0.14039-0.04926-0.2431-0.35189-0.21913v-0.30474l-0.2604-0.21914 0.16891-0.21913-0.06686-0.15751 0.02464-0.18831 0.20057-0.31843-0.01759-0.29447-0.05982-0.0616-0.2991 0.0377-0.23576 0.27392-0.09853-0.2568 0.02464-0.0411 0.11612 0.0377-0.03519-0.18832 0.04926-0.28076-0.11612-0.0171 0.17594-0.24309 0.05982 0.0719 0.03519-0.20201 0.15835-0.0171 0.23576 0.17804 0.0563-0.11641-0.18298-0.0308-0.0739-0.17805 0.34133 0.0548 0.10908-0.12669 0.41522-0.2431 0.10908-0.41431-0.10205-0.19516 0.12316-0.024 0.08445-0.14038 0.13372 0.0479 0.10205-0.0308 0.09149-0.2431-0.01408-0.10272h-0.05982l7e-3 -0.12327 0.14075 0.0171 0.2604-0.1712 0.03167-0.10956-0.05279-0.12669 0.08094-0.20202 0.67562-0.7156z" title="Al Ḩudaydah"/>
 <path id="al_hudaydah" d="m30.444 95.001a1.3246 1.1141 0 0 1-1.8715 0.05493 1.3246 1.1141 0 0 1-0.06662-1.574 1.3246 1.1141 0 0 1 1.8714-0.05714 1.3246 1.1141 0 0 1 0.06926 1.5739l-0.97097-0.75781z" fill="#f00" fill-rule="evenodd">
  <title>Al Hudaydah</title>
 </path>
 <path id="YE-IB" class="land" d="m66.079 106.03 0.40467 0.22256-0.0563 0.79094-0.46449 0.0548 0.11612 1.2977 1.3899 0.39718h0.03167l0.02815 0.67452-0.63691 0.45197-0.58061-0.16777-0.52079 0.0548-0.05982 1.0169-0.63691 0.22256-0.40467 0.62317 0.40467 0.56153 0.81286 0.22598-0.52431 0.51017h-1.2738l-0.92898 0.33556-0.57709 0.45196 0.23224 0.84572-0.81286 0.90393-0.40467 0.67795-0.75304 0.56153-0.11612 0.73273 0.35189 0.5136-0.4469 0.58893-0.52079 0.50674-0.52079 0.28077-0.69673-0.16777-0.52079-0.50676-0.29207-0.39718-0.52079 0.2842-0.40467 0.50674h-0.63691v-0.79094l-1.1612 0.113-0.98528-0.73274-0.28855 0.50676-0.86916-0.56154-0.86916-0.22598-0.64043 0.0548-1.0416-0.0548 0.0563-0.51017 0.46449-0.39376 0.28855-0.39376-0.46097-0.45196-0.58061 0.16777-0.11612 0.45197-0.58061 0.51017-0.28855-0.51017 0.23224-0.50675v-0.56496l-0.81286 0.0582-0.92546 0.78752-0.46449-0.61974-0.40467 0.17119-0.05982 0.67453-0.80934-0.16777-0.98528-0.113-0.05982-0.61974-0.21817-0.63685 0.9149-0.0411-0.34837-0.50676-0.40467-0.45196-0.11612-0.56495 0.34485-0.44854 1.0451 0.84572 0.40467-0.62316-0.11612-0.84573 0.58061-0.22598 0.58061-0.50675-0.46449-0.22598-0.11612-0.67453 0.40467-0.39718 0.40819-1.4107v-0.9005h0.80934l-0.0563 0.9005 0.52079-0.10956 1.2175-0.79094 0.81286-0.90393-0.29206-0.56154-0.11612-0.56496-0.40467-0.17119 0.23224-0.44854 0.52079 0.0548 0.46449-0.56496 0.58061-0.11299 0.69322-0.73273 0.23224-0.56153 0.63691-0.73615h0.52431v2.3146h0.80934l0.17594-0.45197 1.1014-0.0548 0.40467-1.5819 0.63691 0.1712 0.34837 0.39375 0.46449 0.33898 0.46449 0.67795 0.69322 0.22256h0.69673l0.58061 0.22598 0.57709 0.33897h0.98528l0.29206 0.67795 0.28855 0.28077 1.3899 0.0582 0.58061 0.78751z" title="Ibb"/>
 <path id="YE-JA" class="land" d="m114.83 65.161-4.0221 0.34582-8.6353 1.2977-4.0572 0.50674-3.825 0.73274-2.4949 0.61973-1.6785 0.56496-1.2773 0.95872-0.98528 0.95871-0.69674 1.2977-0.57709 0.79094-1.682 0.61974h-4.754l-8.579-5.7523h-5.4472l-0.46449 0.28077-1.39-0.0548-0.92898-0.28419-1.2738-0.0548-0.75304 0.11299-0.81286-0.67795v-1.1847l-0.81286-0.22598-0.57709-0.61974-0.23224-1.1847 0.46449-0.67794 0.23224-1.8044h-0.9888l0.05982-2.7049 0.40467-0.33898-0.11612-1.5237-1.4498-1.2977-0.40467-1.0135-0.52079-0.39718-0.63691 0.33897-0.58061-0.28076-1.2175-0.22598 0.58061-1.0169 1.1577-0.44854 5.1586-4.9066 2.2028-1.4689 1.4498-0.73274 1.682-0.28076h6.2002l-0.04575-8.4059h7.0835l3.9763 2.4927 3.9728 0.26022 5.3909 0.85942 5.5633 0.60262 3.269 0.2568h4.9475l6.802-0.94502 5.2009 6.8274 0.0106 13.504z" title="Al Jawf"/>
 <path id="amran" d="m52.451 75.25a1.3246 1.1141 0 0 1-1.8715 0.05493 1.3246 1.1141 0 0 1-0.06662-1.574 1.3246 1.1141 0 0 1 1.8714-0.05714 1.3246 1.1141 0 0 1 0.06926 1.5739l-0.97097-0.75781z" fill="#f00" fill-rule="evenodd">
  <title>Amran</title>
 </path>
 <path id="YE-LA" class="land" d="m42.041 141.32 0.15483-0.94159 0.46449-0.61975 1.1612-1.8592 0.52079-1.2977 0.52079-0.79094 0.69673-0.0548 0.46449-0.51017-0.11612-1.8592 0.11612-0.51017 1.0416 0.1712 0.69673-0.1712 0.23224-0.50675 0.57709-0.16778 0.40819-0.33897h0.46097l0.64043 0.50675 1.2738 0.22598 0.58061 0.61974 0.34837-0.28076-0.05982-0.84573 0.46449-0.28419 0.40467 0.22598 0.29206 0.51018 1.0979-0.0582 0.05982-1.2977 1.7383 0.0582-0.40467-0.45196-0.28855-0.61974 0.52079-0.0582v-0.95871l0.46449-0.0548 0.34485 0.84573 1.6257-0.1712 0.57709 0.22598 0.40819-0.44854 0.63691-0.2842v-0.67451l-0.46449-0.56496 0.34837-0.84572-0.46449-0.39719 0.11612-0.44854 0.69673-0.28419 0.63691 0.1712h0.75304l0.11612-0.56495-0.58061-0.22599-0.63691-0.11299-0.63691-0.22599-0.05982-0.67451 0.46449-0.2842 0.52079-0.16777 0.52431-0.0582 0.28855-0.33897 0.52079-0.28077 0.64043-0.22598 0.57709-0.61974 0.63691-0.45197 0.75655 0.22599 0.46097 0.45196 0.75655-0.56496 0.63691 0.45197 0.69322-0.22599 0.92898-0.11298 0.58061-0.33898 0.23224-0.39375h0.57709l0.23224 0.39375h1.1014l-0.28855-1.1265-0.69673-2.0304h0.98528l0.63691 0.33897 0.64043-0.56496 0.92546-0.17119 0.86916-0.78752 1.2175-0.73274 1.1612-0.95871 0.75304-0.84572 0.69322-1.8558v0.0514l0.92898 0.0548 0.17242 0.39376 0.81286-0.0548 0.52079-0.79093 0.63691-0.50675 0.69673-0.67795 0.69673 0.0582 0.40467 0.56153 0.05982 2.8761-1.4146-0.0548-0.23225 0.45197 0.17242 0.67794 0.46449 0.33555 0.11612 0.56496-0.63691 0.22598-1.0451-0.16778-0.46449 0.33556-0.11612 0.79094 0.40819 0.33897 0.0563 0.84573-0.80934-0.0582-0.69673 0.17119-0.40467 0.39376 0.46097 0.67794 0.86916-0.28076h0.64043l0.40467 0.39376-0.28855 0.84572-0.58061 0.79094-0.75304 0.50675-0.58061 1.1847 0.92898 0.45197 0.75304 0.73273 0.46449 0.56153-0.23224 0.90394-0.58061 0.33897-0.81286 0.22598-0.34837 1.6914-0.98528 2.4824-0.80934 1.0717-0.86916 0.50676-0.11612 0.9005 0.40467 0.95871 0.50672 0.73958-0.22521 0.35268-1.7876 0.0924-1.9143 0.28419-0.69322 0.45196-1.1612 0.50675-1.8544 0.16778-4.2895 0.11299-2.0304 0.90393-0.69322 0.9005-0.64043 0.95872-0.23224 1.0786-0.92898 0.315-1.4111 0.77725-0.46449-0.024-0.29558 0.11983-0.34837-0.16777-0.3167-0.0308-0.84453 0.35609-0.40819 0.0342-0.25688-0.13012-0.2604-0.024-0.18298-0.14723 0.04223-0.024 0.18298 0.12669 0.35189 0.0377 0.0739 0.0651 0.3167 0.024 0.25688-0.0719v-0.2705l-0.1126-0.15065-0.62988-0.24653-0.51727 0.13011-0.88323 0.55127-0.40115 0.0993-0.52431 0.27392-1.3266 0.0342-0.373 0.19517-0.58765 0.0171-0.39763-0.0924-0.27447-0.23968 7e-3 -0.5136-0.15131-0.25337-1.3935-0.43827-1.0099-0.56154-0.2428-0.0479-0.34133 0.0719-0.26743-0.0856-0.30614-0.24653-0.1865-0.0651-0.3554-0.10957-0.36596-0.0308-0.38004-0.2294-0.72137-0.0274-0.12668-0.13354-0.2428-0.0719-0.14075 0.0308-0.63691-0.31501-0.32374 0.0856-0.36596 0.20202-0.97472 1.1539-0.07038 0.0137-0.0739-0.13353z" title="Laḩij"/>
 <path id="YE-MA" class="land" d="m85.999 96.668 0.05279 0.79094-0.57709 1.2977-0.23224 0.9005h-1.2773l0.11612-0.67794-0.63691-0.33556-0.40467 0.61975-0.23225 0.84572-0.69673 0.0548-1.0416-0.67452-0.34837 0.44854 0.86916 0.62316-0.17242 0.50675-0.52431-0.0582-0.57709-0.50674-0.69673-0.0548-0.69673 0.56153-0.17242 0.73616-1.1014-0.33898-0.86916-0.61974-0.52079-1.5237-0.34837-2.3146-0.29206-2.479h-0.46097l-0.46449 0.28077h-0.98528l-1.0451 0.45197-0.23224-0.67795-0.11612-0.9005 0.52431-0.51018 0.63691-1.0717 0.40467-1.3525 1.1612-1.3525 1.1577-1.0169 0.98528-2.7632 0.11612-1.3525-0.75304-0.11299-5.2748-2.5954-0.69673-0.16777v2.1434l-2.3189-0.11299-0.28855-2.7084-1.1577 0.78751-0.92898 0.45197-0.81286-0.28076-0.75304-0.50675 0.29207-0.84573 1.3336-0.11299 0.75304-0.28419 0.57709-0.39376 0.58061-0.56495 0.81286-0.39376 0.69322-0.11299 0.81286-0.28077 0.46449-0.73615-0.29206-0.61974-0.57709-0.22599-1.0451-0.28076-0.86916-2.0852 0.11612-0.84914-0.40467-1.9174-0.81286-1.6914-0.34837-0.45197-0.0563-0.56153-0.69673-0.31158 0.46449-0.28077h5.4472l8.579 5.7523h4.754l1.682-0.61974 0.5771-0.79094 0.69673-1.2977 0.98528-0.95871 1.2773-0.95872 1.6785-0.56496 2.4949-0.61974 3.825-0.73273 4.0572-0.50674 8.6353-1.2977 4.0221-0.34582-10.923 11.974-0.43634 0.4417-6.9568 4.1738-2.143 1.6367-1.5096 0.95872-1.1577 0.61974-1.0451 0.39376-0.98528 1.4689-1.7946 1.2395-1.2175 1.5784-0.98528 1.6914 0.11612 1.9174-0.63691 1.4107-0.11612 1.9756z" title="Ma'rib"/>
 <path id="al_hazm" d="m76.071 63.933a1.3246 1.1141 0 0 1-1.8715 0.05493 1.3246 1.1141 0 0 1-0.06663-1.574 1.3246 1.1141 0 0 1 1.8714-0.05714 1.3246 1.1141 0 0 1 0.06926 1.5739l-0.97097-0.75781z" fill="#f00" fill-rule="evenodd">
  <title>Al Hazm</title>
 </path>
 <path id="YE-MR" class="land" d="m201.66 88.858-0.42227-0.82861-0.4293-0.50332-0.42929-1.171-0.60173-1.171-0.6897-0.83545-0.51375-1.0888-1.2914-0.0822-0.34133-0.50332-0.6897-0.33556-1.2034-0.33212-1.6328-0.83888-1.9776-0.5855-1.8052-0.16434-0.0845-0.75328 0.68618-0.16777-0.0845-1.7565-1.4638-0.50333-0.8586-0.16777-0.51727-0.66768 0.088-0.83545 0.77415-3.513 0.25687-2.1776 0.6897-1.0854 0.68617-0.5855 0.34485-1.0888-0.51727-0.83545-0.68618-0.75327-0.94657-0.66768 0.51375-1.9243 0.77415-1.421 0.51727-1.171-0.0845-1.5066 1.031-1.5066-0.77415-0.49989-0.088-1.0066 0.60172-0.91764 0.77415-0.83886 1.2914-0.83546 1.8896-0.4999 1.7207-0.0856 1.2034-0.5855 0.94305-0.75328 0.68969-0.75327 0.0845-1.421 1.4638-1.171 1.7172-1.0854 1.8052-1.2566 1.4603-0.75327 1.4638-0.66767 1.031-0.0856 0.25688-1.0032 0.34484-0.5855 0.8586-1.0854 1.2034-0.92105 1.031-1.171 0.26039-1.0032 0.68618-1.0032 1.119-1.9243 1.4603-3.513 1.1155-2.4276 0.51728-2.5098 0.68617-6.5227 0.43282-1.5887 0.77063-1.171 0.6897-1.421 1.2034-1.7565 0.77416-2.092 0.8586-1.5887 0.77415-1.2566 1.2034-1.5031 1.031-1.0888 0.68618-1.171 1.8931-2.092 0.77064-1.6401 8.6564 17.925 0.0845 1.7428 8.2588 16.736-0.85157 1.5716 1.7031-0.16436 0.51024 1.7394 5.9609 12.511-1.3512 0.52729-0.96065 0.24653-1.5272 0.29104-0.70729 0.31158-2.0445 0.68822-0.0915 0.0719-4e-3 0.10615-0.62987 0.26365-0.31318 0.0548-1.3407 0.44855-0.10205 0.10956-0.49967 0.24653-2.7588 0.89023-1.8967 0.74986-0.9325 0.48962-0.80934 0.55126-0.95009 0.78409-1.0697 1.1607-1.9248 2.3797-0.4117 0.96215-0.25688 0.43826-0.0492 0.78409-0.1689 0.55812-0.17595 0.15408-0.47504 1.1813-0.26743 0.42115-0.12669 0.44853 0.088 0.73274 0.14076 0.0856 0.0985 0.18489 0.21816 0.0788-0.0985 0.30132-0.0774 0.0548-0.0774 1.1128 0.33781 0.27733 0.24632 0.0719 0.34485 0.48278-0.2252-0.0856-0.0528 0.12326 0.22521 0.34925-0.11261 0.26707 0.15835 0.0993 7e-3 0.0685-0.16538 0.024-0.11964 0.14723-0.0317 0.30473 0.12316 0.38007 0.0492 0.44511 0.64395 1.9482-0.33429 0.19517-0.30966 0.31843-0.6721 0.13011-3.7159 1.2772-1.0732 0.39718-0.23577 0.19517-1.485 0.5855-0.2815 0.23625-0.18299 0.25337 0.15835 0.113-0.10909 0.16092 0.0176 0.0856 0.21465 0.18148-0.21817-0.0171-0.088 0.0856-0.34484-0.30473-0.20058-0.0993-1.5026 0.42115-1.5413 0.61289-0.80934 0.49305-0.19354 0.48964 0.0352 0.30815 0.45745 0.15408 0.11963 0.15408-0.095 0.10957-0.40115 3e-3 -0.27446 0.15408-0.54191-0.0137-0.0492-0.089-0.58413 0.0719-0.79877 0.22597-1.3724 0.52388-0.11613 0.16435-0.30966 0.1712-0.0247 0.16092-0.14076-0.0856-0.11611 0.0548-0.0106 0.0788-0.15483-0.0377-0.37652 0.19517 0.0247 0.21914-0.3167-0.11643-0.70026 0.28077-0.10204 0.0616-7e-3 0.22598-0.46097 0.024-0.13373-0.10956h-0.0915l-0.13372 0.10272-0.15835-0.0103-0.58413 0.18147-1.5237 0.67111-0.47505 0.0616-1.3301 0.45881-0.28151 0.0171-0.0247-0.29446-0.0492 0.23283-0.14427 0.1575-2.1606 0.38691-2.3858 0.68138-0.44338 0.0548-1.7242 0.55469-0.18299-0.0479z" title="Al Mahrah"/>
 <path id="al-ghayda" d="m232.6 63.746a1.3246 1.1141 0 0 1-1.8715 0.05493 1.3246 1.1141 0 0 1-0.0666-1.574 1.3246 1.1141 0 0 1 1.8714-0.05714 1.3246 1.1141 0 0 1 0.0693 1.5739l-0.97097-0.75781z" fill="#f00" fill-rule="evenodd">
  <title>Al-Ghayda</title>
 </path>
 <path id="YE-MW" class="land" d="m51.032 79.154 0.28855 0.62317-0.86916 0.44854 0.23224 0.56496 0.46449 0.11299v0.50675l-0.52431 0.11299-0.34485 0.28419-0.29207 0.56153h-1.2738l-0.29206 0.67794-0.80934 0.73274-0.98528 0.61974-1.3336 0.28419-0.52079 0.73273-1.0451 0.11299-0.46449 0.50675-0.17242 1.1265 0.40467 0.28419-0.0563 0.45197-0.17594 0.50674-0.69322 0.33898-0.20761 0.46908-0.14075-0.0479-0.52079-0.28077-0.63691-0.33897-0.40819-0.33897-0.28855-0.39376-0.05982-0.79094-0.52079-0.67452-1.6222-1.0717-0.81286-0.73617-0.34837-0.61973-0.40467-0.33898-0.17242-2.0304 0.69322-0.44853-0.28855-0.51018-0.34837-0.33555 0.05982-0.79094 1.1331-0.11299 0.34837-0.28077 1.2175-0.0582 1.1014-0.39375 1.1612-0.0582 0.86916-0.11299 1.1014 0.28419 1.2738 0.16778 0.86916-0.28077h0.69673l0.52079 0.45196 0.52079-0.28419 0.64043-0.0548 0.17242-0.79094 0.46449-0.0548 0.28855 0.44854 0.63691 0.1712z" title="Al Maḩwīt"/>
 <path id="YE-RA" class="land" d="m44.877 91.96-0.04926 0.16777 0.92898 1.4655 0.69322 0.33897 0.86212 0.14723 0.12316 0.75671 1.1612 1.0717 1.3336 0.95871 0.75304 0.67453-0.17242 1.0717 0.75304 0.90393-0.11612 0.56496-0.52431 0.44854-1.1014 1.1299-1.0416 0.50675-0.69673 0.50675-1.1577 0.0582-0.23224-0.45197-1.3336 0.16778-0.17242 0.62316-0.40819 0.50675-0.52079 0.22598-0.63691 0.45197-0.28855 0.56153h-0.52431l-0.0563-0.44854h-0.05982v-0.51017l0.40819-0.16778 0.0563-0.56495-0.28855-0.50676-0.23224-1.0169-0.34837-0.84571-0.23224-1.0135-0.75304-0.67796 0.11612-1.6914 0.63691-0.79094-0.28855-0.39375-0.17594-0.79094-0.40467-0.44855 0.58061-1.4689 0.80934-0.16777 0.58061-0.56497 0.29206-0.84571 1.6785 0.0582z" title="Raymah"/>
 <path id="YE-SA" class="land" d="m61.581 78.083 0.34837 0.62316-0.46449 0.0548-0.63691-0.33897-0.29206 0.50674-1.1014 0.113-0.17242 0.79094-0.52079 0.56495-0.75656 0.61974 0.11612 0.9005 0.52431 0.67796v0.73272l-0.52431 0.84573h-1.1577l-0.23224-1.1265-0.52079-0.0582-0.11612-0.73274 0.52079-0.78751-0.46449-0.51017-0.69322-0.22256 0.34837-0.67795h0.86916l0.52079-0.39376 0.34837-1.1299 0.46097-0.56495 0.69673-0.0548 0.17594-0.61974h0.63691l0.63691-0.45196 1.0416 0.56496z" title="Amanat Al Asimah"/>
 <path id="YE-SD" class="land" d="m54.121 54.269-1.6539 0.0685-0.98528-0.22256-0.98528-0.11299-1.2175-0.11299-0.75304-0.45197-0.63691-0.11298-0.92898 0.22598-0.40467 0.39376-0.69673 0.33897-1.8544 0.16777-0.80934 0.2842-0.46449 0.22598-0.92898-0.17121-0.86916-0.28076-0.69322 0.11299-0.52431 0.16777-1.3899 0.56497-0.98528-0.113-0.58061-0.39376-0.69322-0.0582-0.26391-0.27733 0.12316-0.0651 0.02111-0.13697-0.03871-0.32527-0.19706-0.18832 0.08094-0.34582-0.1865-0.46224 7e-3 -0.14723 0.22873-0.15751 0.03167-0.1575-0.0563-0.18832 0.60524 0.12327 0.30614-0.19174-0.12668-0.43827-0.17594-0.0925 0.14779-0.32185-0.01055-0.45881-0.2991-3e-3 -0.34485-0.29103-0.21113-0.5136-0.26392-0.11984-0.72136-0.0924-0.45745-0.63001-0.28151-0.21913-0.15483-0.69507 0.25688-0.13353 0.30614-0.0274 0.39059-0.27392-0.12316-0.20886-0.08797-0.78752 0.04926-0.73957 1.4463 0.16434 0.34485-0.56495-0.52079-1.0135-1.0381-0.29788-0.16187 0.0137-0.46097 0.23625-0.07741-0.64371 0.06334-0.11984 0.39411-0.19517 0.07038-0.66082-0.09501-0.12327-7e-3 -0.11299 0.35892-0.10614 0.09853-0.0959-0.04575-0.14038 0.04926-0.113 0.22521-0.11641 0.28503-0.27735 7e-3 -0.18147-0.29206-0.38691-0.08445-0.25337 0.10205-0.33213 0.77767-0.24652 0.20057-0.20202 0.38708-0.0377 0.30262 0.0479 0.56302-0.37663 0.24984-0.0343 0.3554 0.0479 0.0035-0.23968-0.14779-0.25679-0.17242-0.12327-0.23928-0.0171-0.10557-0.0719 0.13724-0.16777-0.01056-0.0959-0.12668-0.14038-0.49616-0.20544-0.49264-0.34925-0.0563-0.45196v-1.0135l0.81286-1.4655 0.75304-0.62317 1.0451-0.33555 1.1577-0.22598 1.0451-0.0582 0.80934 0.28419 0.86916 0.61975 1.0451 0.9005 0.86916 1.0717 1.2175 1.2429 0.09853 0.17806 0.33077 0.0924 0.47153-0.2705 0.68266 0.0411 0.38356 0.17463-0.02464 0.22598 0.0739 0.15408 0.19354-0.10957h0.19002l0.23928 0.16093h0.3554l0.27447 0.12668 0.19002-0.16777 0.15131 0.0788 0.67914-0.17804 0.69322 0.28077 0.96417 0.16435 0.86916-1.1916 1.1225-0.0377 0.75656-0.28762 0.6897 0.81833 0.51375-0.93132 5.2783-0.67795 2.0304-0.0856 1.6785 0.85942 1.2351-0.1712 0.88323-0.60262h5.4613l0.04575 8.4059h-6.2002l-1.682 0.28077-1.4498 0.73273-2.2028 1.4689-5.1586 4.9066-1.1577 0.44854z" title="Şā‘dah"/>
 <path id="YE-SH" class="land" d="m122.52 121.43-0.0492-1.1881 0.34485-1.1847-0.34485-0.67795-0.23224-1.9756-0.17594-4.4272-0.80934-0.61974-0.98528-0.50675v-2.2564l-0.64043-0.33897-0.86916 0.11299-0.28855 0.61974-0.40467 0.79094-0.34836 0.22598-0.34836-0.73273h-1.9706l-1.2175-0.73273-1.1014-0.28419-1.5061 0.28419-1.5659-0.11299-0.51024 0.39376-0.28855 1.0717-1.2773 0.78751-1.0416 0.56496-0.52431-0.28077-0.86916 0.0548-1.1577 0.2842-1.39 0.16777 0.0563-0.61974 0.58062-0.56496 0.23224-0.67794 0.46097-0.84572-0.17242-0.73273-0.75304-0.90051-0.52079-0.84573-1.1612-0.56496-1.3336 0.113-0.69321 0.56496-0.81286 0.33554-0.86916 0.45197-1.5061-1.3525-0.58061-0.73273h-0.58061l-0.69321 0.28076-1.3337 0.0582v-1.8079l-0.46449-1.6332-1.2773-2.3694-2.3752-0.1712-0.17242-2.7049-3.9411-0.11299 0.11612-1.9756 0.63691-1.4107-0.11612-1.9174 0.98528-1.6914 1.2175-1.5784 1.7946-1.2395 0.98527-1.4689 1.0451-0.39376 1.1577-0.61974 1.5096-0.95872 2.143-1.6367 6.9568-4.1738 0.43633-0.4417 13.199-1.3182 7.7908-0.22256 8.0265-1.0032 5.0425 0.33213-2.8679 4.3519-2.9805 2.7871-0.57005 4.0163-0.91842 1.4483 1.1471 0.44512 1.3759 1.0032-0.11612 1.3388-0.68617 1.0032-1.1472 0.55812-1.9494 1.1162-1.1472 0.89366 0.57357 0.89023 1.031 0.67111 1.7207 2.229-0.1126 1.6743h0.9149l4.1276 2.1194 2.1782 0.33212 0.68619 1.3388 1.3759 0.89366 1.8333 1.4483 0.11612 0.89366 0.68619 1.0032 3.0931 1.1162h2.1782l0.91842-0.22598 0.9149-0.55811v1.0066l0.91843 0.33213 1.031 1.1162 0.91842 1.3388 0.0528 0.15407-0.64746 0.0479-0.60877 0.1575-0.25336 0.12326-0.78118 0.64371-0.24281-0.0993-0.26039 0.1267-0.14076 0.16092-0.15835-0.0514-0.0492-0.0788 0.0141-0.29789-0.3554-0.22941-0.15835 0.0479 0.0387 0.12326-0.0422 0.0342-0.19705 7e-3 -0.0598-0.0856-0.2991-0.0548-0.28503 0.20886-0.28151-0.1301-0.43634 0.10956-0.12316-0.16777-0.34133-0.0856-0.13723 0.0651-0.10909 0.14723 0.11261 0.10271 0.0317 0.13355-0.17594-0.0308-0.52431 0.24309-0.0528 0.21229-0.1478-7e-3 -0.19354-0.22256-0.14779 0.13697-0.35892-0.0103-0.0282 0.0787 0.0704 0.12669-0.15131 0.0788-0.0774-0.0411-0.0211-0.14038-0.36949-7e-3 -0.17242-0.0788-0.17946 0.30473-0.2252 0.0479-0.34134-0.0479-0.0739 0.1438-0.20761-0.0651 0.0739-0.42457-0.29206-0.27392-0.94306-0.53756-0.69321-0.26707-0.70026-0.22598-0.76007-0.10957-0.71433 0.0411-0.61228 0.14724-0.96416 0.49305-0.81286 0.73958-1.1683 0.8286-0.43282 0.40745-0.74248 0.25338-0.91842 0.0616-0.56654 0.15065-0.39763 0.21229-0.66155 0.50333-0.36596 0.16435-0.60172 0.58892-0.41875 0.59235-0.71785 0.51017-2.2732 2.027-1.221 0.80806-0.25688 0.23968-0.62636 0.17805-0.60876 0.0411-0.77766 0.30816-1.4181 0.43143z" title="Shabwah"/>
 <path id="YE-SN" class="land" d="m60.547 67.472 0.75656 0.63001 0.75304-0.11298 1.2738 0.0582 0.92898 0.28076 1.39 0.0582 0.69673 0.31158 0.05982 0.56496 0.34837 0.45196 0.81286 1.6914 0.40467 1.9174-0.11612 0.84573 0.86916 2.0886 1.0451 0.28077 0.58061 0.22598 0.28855 0.61974-0.46449 0.73274-0.81286 0.28076-0.69673 0.11299-0.81286 0.39376-0.58061 0.56496-0.58061 0.39375-0.75304 0.28076-1.3336 0.113-0.28855 0.84572 0.75304 0.50675 0.81286 0.28077 0.92898-0.45197 1.1577-0.79094 0.28855 2.7084 2.3189 0.11299v-2.1434l0.69673 0.16778 5.2748 2.5954 0.75304 0.11299-0.11612 1.3525-0.98528 2.7632-1.1577 1.0169-1.1577 1.3525-0.40467 1.3525-0.63691 1.0717-0.52079 0.50675 0.11612 0.90393 0.22169 0.65055-0.89379 0.30817-0.49616 0.59577-0.64043-0.33898-0.23224-0.79094-0.28855-0.45196-0.34837-0.39376-0.46449-0.33898-1.0416-0.11298 0.05982-3.1569-0.52079-0.22598-1.3899 0.11299-0.69673 0.33897-0.75304 0.11299-0.58061 0.33898-0.34837 0.45196-0.92546 0.113-1.0416 0.33897-0.63691-0.50675-0.58061-0.56496h-0.69673v0.56496l0.34837 0.22598-0.28854 0.39375-2.4351-0.16777-1.6222-1.2977-2.5512-0.113-0.52079 0.45197-0.0563 0.56495h-0.58061l-0.34837 0.50676-0.52079 0.45196-0.69673 0.11299-0.17242 0.61974-0.86916 0.73273h-0.63691l-0.0563-0.45197h-1.682v0.50676l-0.98528-0.16778-0.69673-0.33898-0.92898-1.4654 0.11612-0.39376 0.52079-0.61974-0.58061-0.56496h-1.0416l-0.86916-0.16778-0.69673-0.28076-0.0563-0.56495 0.34837-0.79094 0.69673-0.33898 0.17242-0.50675 0.05982-0.45197-0.40467-0.28076 0.17242-1.1265 0.46449-0.50675 1.0451-0.11298 0.52079-0.73274 1.3336-0.28076 0.98528-0.61975 0.81286-0.73272 0.28855-0.67796h1.2738l0.28855-0.56495 0.34837-0.28077 0.52079-0.11299v-0.50675l-0.46449-0.11299-0.23225-0.56495 0.86916-0.45197-0.28855-0.61974-0.17242-0.45196 0.34837-0.39376-0.11612-0.50675 0.92898-0.50675 0.05982 1.1265 1.1014-0.22599 0.98528-0.67794 0.34837-0.73274 0.86916-0.22597 0.23224-0.56497-0.52079-0.22597-0.0563-1.2395 1.0451-0.84573 0.63691-0.84572 0.23225-0.81833-0.46449-0.50675-0.34837-0.28076 0.40467-1.3525 0.11612-1.1265h1.3336l0.69673-0.67794 1.2738-0.0548zm0.62636 9.9364-1.0416-0.56496-0.63691 0.45197h-0.63691l-0.17242 0.61973-0.69673 0.0582-0.46449 0.56496-0.34837 1.1265-0.52079 0.39376h-0.86916l-0.34837 0.67794 0.69673 0.22599 0.46449 0.50675-0.52079 0.79094 0.11612 0.73273 0.52079 0.0582 0.23224 1.1265h1.1577l0.52079-0.84572v-0.73273l-0.52079-0.67795-0.11612-0.90393 0.75304-0.61974 0.52079-0.56495 0.17242-0.79094 1.1014-0.11299 0.28855-0.50675 0.63691 0.33897 0.46449-0.0548z" title="Şan‘ā'"/>
 <path id="ma_rib" d="m81.623 79.838a1.3246 1.1141 0 0 1-1.8715 0.05493 1.3246 1.1141 0 0 1-0.06663-1.574 1.3246 1.1141 0 0 1 1.8714-0.05714 1.3246 1.1141 0 0 1 0.06926 1.5739l-0.97097-0.75782z" fill="#f00" fill-rule="evenodd">
  <title>Ma rib</title>
 </path>
 <path id="YE-TA" class="land" d="m39.772 141.64 0.3167 0.16436 0.13372-0.0411 0.14779 0.14381-0.06686 0.11984 0.08445 0.14038-0.04223 0.0479 0.04926 0.10957-0.17594 0.18147-0.11612-0.0411 0.0739-0.0856-0.05279-0.13353-0.07741 0.14038-0.12668 0.0137 0.09149-0.27733-0.12668-0.15066-0.08445 0.14039-0.30262-0.089 0.27447 0.27734-0.41874-0.16435-0.12668-0.14381 0.05982-0.16435 0.13372-0.089zm5.1727-26.95 0.23224 0.67795 0.05982 0.61973 0.98528 0.113 0.81286 0.16777 0.05982-0.67795 0.40467-0.16777 0.46449 0.61974 0.92898-0.79094 0.81286-0.0548v0.56496l-0.23225 0.50674 0.28855 0.50676 0.58061-0.50676 0.11612-0.45197 0.58061-0.16777 0.46449 0.45197-0.28855 0.39376-0.46449 0.39375-0.0563 0.50675 1.0451 0.0582 0.63691-0.0548 0.86916 0.22598 0.86916 0.56496 0.28855-0.50675 0.98528 0.73273 1.1577-0.11299v0.79094h0.63691l0.40467-0.50675 0.52079-0.28077 0.28855 0.39376 0.52079 0.50675 0.69673 0.16778 0.52079-0.28077 0.52079-0.50675 0.44338-0.5855 0.22873 0.33212 0.17242 0.84573-0.0563 0.56495-0.63691 0.22599 0.11612 0.84571 0.81286 0.16778 0.46449-0.28076 1.2175 0.16777 0.40467 0.50675 0.34837 0.61974-0.63691 0.45196-0.58061 0.61975-0.63691 0.22598-0.52079 0.28076-0.28855 0.33898-0.52079 0.0582-0.52079 0.16779-0.46449 0.28076 0.05982 0.67795 0.63691 0.22598 0.63691 0.11299 0.58061 0.22598-0.11612 0.56496h-0.75304l-0.63691-0.16778-0.69673 0.28077-0.11612 0.45196 0.46449 0.39376-0.34837 0.84573 0.46449 0.56495v0.67795l-0.63691 0.28076-0.40467 0.45197-0.58061-0.22598-1.6222 0.16777-0.34837-0.84572-0.46449 0.0582v0.95872l-0.52079 0.0582 0.28855 0.61974 0.40467 0.45197-1.7383-0.0548-0.0563 1.2977-1.1014 0.0548-0.28855-0.50674-0.40467-0.22599-0.46449 0.28077 0.05982 0.84572-0.34837 0.28077-0.58061-0.61974-1.2738-0.22599-0.63691-0.50674h-0.46449l-0.40467 0.33897-0.58061 0.16777-0.23224 0.50676-0.69673 0.16777-1.0416-0.16777-0.11612 0.50674 0.11612 1.8626-0.46449 0.50675-0.69673 0.0582-0.52079 0.79093-0.52079 1.2977-1.1577 1.8626-0.46449 0.61974-0.15483 0.93817-0.20058 0.15065-0.03167 0.10957-0.09853-0.10957-0.15835 0.14381-0.03167-0.16436-0.04926 0.11985-0.10908 0.024-0.13372-0.14381-0.06686 0.0411 0.01407 0.11641-0.11612-0.0616-0.06686 0.0411 0.08094-0.14382h-0.0739l-0.07741 0.113-0.05982-0.024-0.10205-0.19174 0.03167-0.11299-0.14427-0.0719 0.41523-0.48278 0.09149 0.16777 0.34837-7e-3 -0.27447-0.22941-0.15131 0.024-0.0739-0.0616 0.12316-0.92789 0.2991-0.90393 0.15835-0.2705-0.01408-0.15065-0.85156-0.95871-7e-3 -0.13354-0.43282-0.59235-0.18298-0.57181-0.45745-0.315 0.08445-0.0856 0.01056-0.20544-0.28503-0.60947-0.64395-1.0203-0.47505-0.98953-0.81638-0.9861-0.59469-0.88682-0.6158-1.1607-0.19354-0.81149-0.39411-0.64713 0.0176-0.14038 0.10908-0.0788-0.03167 0.26023 0.27447 0.42799 0.03519-0.5136-0.09853-0.15065-0.0563-0.34924-0.10205 0.0377-0.01055 0.21571-0.04926-0.22256 0.04926-0.11299 0.12668-7e-3 0.06686-0.24652-0.14427-0.14039 0.14076 0.0137 0.11612-0.0856 0.05982-0.16778 0.04926-0.6574-0.04926-1.1196 0.14779-0.10272 0.04926-0.19174-0.01407-0.11641-0.08445-0.0719 0.08094-1.373 0.06686-0.30816 0.12668-0.0856-0.03519-0.19859 0.17594-0.34583-0.04223-0.11984 0.04926-0.16777 0.18298-0.26023-0.08445-0.29788 0.16539 7e-3 0.15835-0.19517-0.01759-0.21913-0.17594-0.21229-0.03519-0.30815 0.10908-0.76698 0.43986-0.14381 0.63691-0.22598 0.69673-0.39376 0.63691-0.11299 0.46449-0.39375 0.34837-1.1847 1.0451-0.11299-0.17242-0.50675 0.05982-0.61974 0.23224-1.0135 1.2738-0.28076 0.86916 0.16777 0.75304-0.45197h0.60172z" title="Tā‘izz"/>
 <g fill-opacity="0">
  <ellipse cx="57.317" cy="80.067" rx=".1408" ry=".40288" stroke-width=".34711"/>
  <path d="m57.891 79.576a0.063822 0.29847 0 0 1-2.6e-5 0.0086l-0.0638-0.0086z"/>
  <path d="m58.106 79.662a0.2638 0.24408 0 0 1-1.09e-4 7e-3l-0.26369-7e-3z"/>
  <path d="m58.106 79.726a0.011023 0.057064 0 0 1-4e-6 0.0016l-0.01102-0.0016z"/>
  <path d="m58.262 79.753a0.18616 0.18114 0 0 1-7.6e-5 0.0052l-0.18608-0.0052z"/>
  <path d="m58.338 79.62a0.22354 0.24344 0 0 1-9.2e-5 7e-3l-0.22345-7e-3z"/>
  <path d="m58.338 79.667a0.0077962 0.29415 0 0 1-4e-6 0.0084l-0.0078-0.0084z"/>
  <path d="m58.487 79.58a0.17385 0.20754 0 0 1-7.2e-5 0.0059l-0.17378-0.0059z"/>
  <path d="m58.506 79.541a0.18282 0.18611 0 0 1-7.5e-5 0.0053l-0.18275-0.0053z"/>
  <rect x="58.163" y="79.353" width=".074463" height=".050499" stroke-width=".34711"/>
  <rect x="152.15" y="225.97" width="0" height="0"/>
  <g stroke-width=".34711">
   <rect x="58.323" y="79.231" width=".4039" height=".35297"/>
   <rect x="58.639" y="79.584" width=".08795" height=".009822"/>
   <rect x="58.163" y="79.403" width=".058668" height=".070257"/>
  </g>
  <path d="m58.53 80.352a0.52972 0.41608 0 0 1-2.17e-4 0.01192l-0.52951-0.01192z"/>
  <path d="m58.479 79.734a0.38659 0.405 0 0 1-0.42869 0.35484 0.38659 0.405 0 0 1-0.33928-0.44863 0.38659 0.405 0 0 1 0.42777-0.35606 0.38659 0.405 0 0 1 0.34044 0.44767l-0.38417-0.04526z"/>
  <path d="m58.407 79.883a0.25529 0.099362 0 0 1-0.28309 0.08705 0.25529 0.099362 0 0 1-0.22405-0.11007 0.25529 0.099362 0 0 1 0.28248-0.08735 0.25529 0.099362 0 0 1 0.22482 0.10983l-0.25369-0.0111z"/>
  <path d="m58.137 79.96a0.092542 0.27122 0 0 1-5.78e-4 0.02855l-0.09196-0.03031z"/>
  <path d="m58.314 79.634a0.10917 0.092423 0 0 1-0.03211 0.06487l-0.07705-0.06547z"/>
  <path d="m58.282 79.638a0.22697 0.061374 0 0 1-0.06677 0.04308l-0.1602-0.04348z"/>
  <path d="m58.244 80.054a0.43324 0.22395 0 0 1-0.12744 0.15719l-0.30579-0.15864z"/>
  <path d="m58.099 79.665a0.022415 0.027748 0 0 1-6e-3 0.01869l-0.01643-0.01887z"/>
 </g>
 <path id="sanaa" d="m59.604 80.082a1.8572 1.2882 0 0 1-2.6222 0.06462 1.8572 1.2882 0 0 1-0.09831-1.8188 1.8572 1.2882 0 0 1 2.6218-0.07177 1.8572 1.2882 0 0 1 0.10861 1.8185l-1.3677-0.87149z" fill="#0f0" fill-rule="evenodd">
  <title>Sana'a</title>
 </path>
 <path id="aden" d="m76.062 138.84a1.3246 1.1141 0 0 1-1.8715 0.0549 1.3246 1.1141 0 0 1-0.06663-1.574 1.3246 1.1141 0 0 1 1.8714-0.0571 1.3246 1.1141 0 0 1 0.06926 1.5739l-0.97097-0.75781z" fill="#f00" fill-rule="evenodd">
  <title>Aden</title>
 </path>
</svg>
